<mxfile host="app.diagrams.net" modified="2022-01-13T12:42:20.892Z" agent="5.0 (Macintosh; Intel Mac OS X 10_15_7) AppleWebKit/537.36 (KHTML, like Gecko) Chrome/97.0.4692.71 Safari/537.36" etag="_KJt5pnpogCbByKqWmX8" version="15.9.4" type="github">
  <diagram id="quGfgrkIpF4LzjYwFJsh" name="Page-1">
    <mxGraphModel dx="946" dy="614" grid="1" gridSize="10" guides="1" tooltips="1" connect="1" arrows="1" fold="1" page="1" pageScale="1" pageWidth="827" pageHeight="1169" math="0" shadow="0">
      <root>
        <mxCell id="0" />
        <mxCell id="1" parent="0" />
        <mxCell id="0IT1Qo1SSkNv_Q9uhfRW-24" style="edgeStyle=orthogonalEdgeStyle;rounded=0;orthogonalLoop=1;jettySize=auto;html=1;exitX=0;exitY=0.5;exitDx=0;exitDy=0;entryX=0;entryY=0.5;entryDx=0;entryDy=0;" edge="1" parent="1" source="0IT1Qo1SSkNv_Q9uhfRW-1" target="0IT1Qo1SSkNv_Q9uhfRW-18">
          <mxGeometry relative="1" as="geometry" />
        </mxCell>
        <mxCell id="0IT1Qo1SSkNv_Q9uhfRW-1" value="FlinkDataFactory" style="swimlane;fontStyle=0;childLayout=stackLayout;horizontal=1;startSize=30;horizontalStack=0;resizeParent=1;resizeParentMax=0;resizeLast=0;collapsible=1;marginBottom=0;" vertex="1" parent="1">
          <mxGeometry x="100" y="90" width="140" height="60" as="geometry" />
        </mxCell>
        <mxCell id="0IT1Qo1SSkNv_Q9uhfRW-3" value="configureDataWrite()" style="text;strokeColor=none;fillColor=none;align=left;verticalAlign=middle;spacingLeft=4;spacingRight=4;overflow=hidden;points=[[0,0.5],[1,0.5]];portConstraint=eastwest;rotatable=0;" vertex="1" parent="0IT1Qo1SSkNv_Q9uhfRW-1">
          <mxGeometry y="30" width="140" height="30" as="geometry" />
        </mxCell>
        <mxCell id="0IT1Qo1SSkNv_Q9uhfRW-30" style="edgeStyle=orthogonalEdgeStyle;rounded=0;orthogonalLoop=1;jettySize=auto;html=1;exitX=0;exitY=0.5;exitDx=0;exitDy=0;entryX=0;entryY=0.5;entryDx=0;entryDy=0;" edge="1" parent="1" source="0IT1Qo1SSkNv_Q9uhfRW-5" target="0IT1Qo1SSkNv_Q9uhfRW-21">
          <mxGeometry relative="1" as="geometry" />
        </mxCell>
        <mxCell id="0IT1Qo1SSkNv_Q9uhfRW-31" style="edgeStyle=orthogonalEdgeStyle;rounded=0;orthogonalLoop=1;jettySize=auto;html=1;exitX=0;exitY=0.5;exitDx=0;exitDy=0;entryX=0;entryY=0.5;entryDx=0;entryDy=0;" edge="1" parent="1" source="0IT1Qo1SSkNv_Q9uhfRW-5" target="0IT1Qo1SSkNv_Q9uhfRW-22">
          <mxGeometry relative="1" as="geometry" />
        </mxCell>
        <mxCell id="0IT1Qo1SSkNv_Q9uhfRW-32" style="edgeStyle=orthogonalEdgeStyle;rounded=0;orthogonalLoop=1;jettySize=auto;html=1;exitX=0;exitY=0.5;exitDx=0;exitDy=0;entryX=0;entryY=0.5;entryDx=0;entryDy=0;" edge="1" parent="1" source="0IT1Qo1SSkNv_Q9uhfRW-5" target="0IT1Qo1SSkNv_Q9uhfRW-23">
          <mxGeometry relative="1" as="geometry" />
        </mxCell>
        <mxCell id="0IT1Qo1SSkNv_Q9uhfRW-5" value="SparkDataFactory" style="swimlane;fontStyle=0;childLayout=stackLayout;horizontal=1;startSize=30;horizontalStack=0;resizeParent=1;resizeParentMax=0;resizeLast=0;collapsible=1;marginBottom=0;" vertex="1" parent="1">
          <mxGeometry x="290" y="90" width="140" height="60" as="geometry" />
        </mxCell>
        <mxCell id="0IT1Qo1SSkNv_Q9uhfRW-6" value="configureDataWrite" style="text;strokeColor=none;fillColor=none;align=left;verticalAlign=middle;spacingLeft=4;spacingRight=4;overflow=hidden;points=[[0,0.5],[1,0.5]];portConstraint=eastwest;rotatable=0;" vertex="1" parent="0IT1Qo1SSkNv_Q9uhfRW-5">
          <mxGeometry y="30" width="140" height="30" as="geometry" />
        </mxCell>
        <mxCell id="0IT1Qo1SSkNv_Q9uhfRW-9" value="BaseWriterFactory" style="shape=process;whiteSpace=wrap;html=1;backgroundOutline=1;" vertex="1" parent="1">
          <mxGeometry x="190" y="20" width="140" height="30" as="geometry" />
        </mxCell>
        <mxCell id="0IT1Qo1SSkNv_Q9uhfRW-11" value="" style="endArrow=classic;html=1;rounded=0;exitX=0.5;exitY=1;exitDx=0;exitDy=0;entryX=0.5;entryY=0;entryDx=0;entryDy=0;" edge="1" parent="1" source="0IT1Qo1SSkNv_Q9uhfRW-9" target="0IT1Qo1SSkNv_Q9uhfRW-1">
          <mxGeometry width="50" height="50" relative="1" as="geometry">
            <mxPoint x="390" y="340" as="sourcePoint" />
            <mxPoint x="440" y="290" as="targetPoint" />
          </mxGeometry>
        </mxCell>
        <mxCell id="0IT1Qo1SSkNv_Q9uhfRW-12" value="" style="endArrow=classic;html=1;rounded=0;entryX=0.5;entryY=0;entryDx=0;entryDy=0;" edge="1" parent="1" target="0IT1Qo1SSkNv_Q9uhfRW-5">
          <mxGeometry width="50" height="50" relative="1" as="geometry">
            <mxPoint x="260" y="50" as="sourcePoint" />
            <mxPoint x="180" y="100" as="targetPoint" />
          </mxGeometry>
        </mxCell>
        <mxCell id="0IT1Qo1SSkNv_Q9uhfRW-18" value="FlinkParquetWriter" style="shape=process;whiteSpace=wrap;html=1;backgroundOutline=1;" vertex="1" parent="1">
          <mxGeometry x="110" y="180" width="140" height="30" as="geometry" />
        </mxCell>
        <mxCell id="0IT1Qo1SSkNv_Q9uhfRW-19" value="FlinkORCWriter" style="shape=process;whiteSpace=wrap;html=1;backgroundOutline=1;" vertex="1" parent="1">
          <mxGeometry x="110" y="230" width="140" height="30" as="geometry" />
        </mxCell>
        <mxCell id="0IT1Qo1SSkNv_Q9uhfRW-20" value="FlinkMergetreeWriter" style="shape=process;whiteSpace=wrap;html=1;backgroundOutline=1;" vertex="1" parent="1">
          <mxGeometry x="110" y="280" width="140" height="30" as="geometry" />
        </mxCell>
        <mxCell id="0IT1Qo1SSkNv_Q9uhfRW-21" value="SparkParquetWriter" style="shape=process;whiteSpace=wrap;html=1;backgroundOutline=1;" vertex="1" parent="1">
          <mxGeometry x="310" y="180" width="140" height="30" as="geometry" />
        </mxCell>
        <mxCell id="0IT1Qo1SSkNv_Q9uhfRW-22" value="SparkORCWriter" style="shape=process;whiteSpace=wrap;html=1;backgroundOutline=1;" vertex="1" parent="1">
          <mxGeometry x="310" y="230" width="140" height="30" as="geometry" />
        </mxCell>
        <mxCell id="0IT1Qo1SSkNv_Q9uhfRW-23" value="SparkMergetreeWriter" style="shape=process;whiteSpace=wrap;html=1;backgroundOutline=1;" vertex="1" parent="1">
          <mxGeometry x="310" y="280" width="140" height="30" as="geometry" />
        </mxCell>
        <mxCell id="0IT1Qo1SSkNv_Q9uhfRW-25" style="edgeStyle=orthogonalEdgeStyle;rounded=0;orthogonalLoop=1;jettySize=auto;html=1;exitX=0;exitY=0.5;exitDx=0;exitDy=0;entryX=0;entryY=0.5;entryDx=0;entryDy=0;" edge="1" parent="1" source="0IT1Qo1SSkNv_Q9uhfRW-1" target="0IT1Qo1SSkNv_Q9uhfRW-19">
          <mxGeometry relative="1" as="geometry">
            <mxPoint x="110" y="130" as="sourcePoint" />
            <mxPoint x="120" y="205" as="targetPoint" />
          </mxGeometry>
        </mxCell>
        <mxCell id="0IT1Qo1SSkNv_Q9uhfRW-26" style="edgeStyle=orthogonalEdgeStyle;rounded=0;orthogonalLoop=1;jettySize=auto;html=1;exitX=0;exitY=0.5;exitDx=0;exitDy=0;entryX=0;entryY=0.5;entryDx=0;entryDy=0;" edge="1" parent="1" source="0IT1Qo1SSkNv_Q9uhfRW-1" target="0IT1Qo1SSkNv_Q9uhfRW-20">
          <mxGeometry relative="1" as="geometry">
            <mxPoint x="120" y="140" as="sourcePoint" />
            <mxPoint x="130" y="215" as="targetPoint" />
          </mxGeometry>
        </mxCell>
      </root>
    </mxGraphModel>
  </diagram>
</mxfile>
